# xmcd
#
# Track frame offsets:
#  150
#  19023
#  44783
#  66905
#  91158
#  108300
#  125283
#  145613
#  170255
#
# Disc length: 2481 seconds
#
# Revision: 0
# Processed by: cddbd v1.5.2PL0 Copyright (c) Steve Scherf et al.
# Submitted via: Collectorz.com_Music_Collector 6.11
#
DISCID=7209af09
DTITLE=Various Artist - Tropic Tonic No 2
DYEAR=1900
DGENRE=World
TTITLE0=Juluka - Ibhola Lethu
TTITLE1=Ray Lema - Peuple Eyo
TTITLE2=Empire Bakuba - Zouke, Zouke
TTITLE3=Ti Fock - Souke, Souke
TTITLE4=Toure Kunda - Em'ma
TTITLE5=Alpha Blondy - Bintou, Were Were
TTITLE6=Cabral and Cabo Verde Show - Sénégal Diambar
TTITLE7=Ismael Lo - Xalat
TTITLE8=Idrissa Diop - Apartheid
EXTD=
EXTT0=
EXTT1=
EXTT2=
EXTT3=
EXTT4=
EXTT5=
EXTT6=
EXTT7=
EXTT8=
PLAYORDER=
